# xmcd
# 
# Track frame offsets:
#     150
#     11920
#     25395
#     38332
#     48442
#     59862
#     70250
#     81825
#     93712
#     106104
#     119397
#     131042
#     144310
#     157075
#     168165
# 
# Disc length: 2366
# 
# Revision: 13
# Processed by: cddbd v1.5.2PL0 Copyright (c) Steve Scherf et al.
# Submitted via: fre:ac v1.0.31
# 
DISCID=cf093c0f
DTITLE=Time/Life - Time-Life Classic Country: 1950-1959 Disc1
DYEAR=1999
DGENRE=Country
TTITLE0=Walkin' After Midnight
TTITLE1=My Special Angel
TTITLE2=The Three Bells
TTITLE3=It's Only Make Believe
TTITLE4=Young Love
TTITLE5=Honeycomb
TTITLE6=The Battle of New Orleans
TTITLE7=Sixteen Tons
TTITLE8=I Walk the Line
TTITLE9=You Win Again
TTITLE10=Crazy Arms
TTITLE11=Hey, Good Lookin'
TTITLE12=I'm Movin' On
TTITLE13=Singing the Blues
TTITLE14=Don't Be Cruel
EXTD=
EXTT0=
EXTT1=
EXTT2=
EXTT3=
EXTT4=
EXTT5=
EXTT6=
EXTT7=
EXTT8=
EXTT9=
EXTT10=
EXTT11=
EXTT12=
EXTT13=
EXTT14=
PLAYORDER=
